<?xml version="1.0" encoding="UTF-8" standalone="no"?>
<svg
   xmlns:dc="http://purl.org/dc/elements/1.1/"
   xmlns:cc="http://creativecommons.org/ns#"
   xmlns:rdf="http://www.w3.org/1999/02/22-rdf-syntax-ns#"
   xmlns:svg="http://www.w3.org/2000/svg"
   xmlns="http://www.w3.org/2000/svg"
   xmlns:sodipodi="http://sodipodi.sourceforge.net/DTD/sodipodi-0.dtd"
   xmlns:inkscape="http://www.inkscape.org/namespaces/inkscape"
   width="1000"
   height="1000"
   viewBox="0 0 1000 1000"
   version="1.1"
   id="svg50"
   sodipodi:docname="icons.svg"
   inkscape:version="0.92.3 (2405546, 2018-03-11)">
  <metadata
     id="metadata56">
    <rdf:RDF>
      <cc:Work
         rdf:about="">
        <dc:format>image/svg+xml</dc:format>
        <dc:type
           rdf:resource="http://purl.org/dc/dcmitype/StillImage" />
        <dc:title>sprite</dc:title>
      </cc:Work>
    </rdf:RDF>
  </metadata>
  <defs
     id="defs54" />
  <sodipodi:namedview
     pagecolor="#ffffff"
     bordercolor="#666666"
     borderopacity="1"
     objecttolerance="10"
     gridtolerance="10"
     guidetolerance="10"
     inkscape:pageopacity="0"
     inkscape:pageshadow="2"
     inkscape:window-width="1920"
     inkscape:window-height="1172"
     id="namedview52"
     showgrid="false"
     inkscape:zoom="3.136794"
     inkscape:cx="247.53417"
     inkscape:cy="952.04836"
     inkscape:window-x="1920"
     inkscape:window-y="0"
     inkscape:window-maximized="1"
     inkscape:current-layer="svg50"
     showguides="true"
     inkscape:guide-bbox="true">
    <sodipodi:guide
       position="0,0"
       orientation="0,1000"
       id="guide850"
       inkscape:locked="false" />
    <sodipodi:guide
       position="1000,0"
       orientation="-1000,0"
       id="guide852"
       inkscape:locked="false" />
    <sodipodi:guide
       position="1000,1000"
       orientation="0,-1000"
       id="guide854"
       inkscape:locked="false" />
    <sodipodi:guide
       position="0,1000"
       orientation="1000,0"
       id="guide856"
       inkscape:locked="false" />
    <sodipodi:guide
       position="0,968"
       orientation="0,1"
       id="guide858"
       inkscape:locked="false"
       inkscape:label=""
       inkscape:color="rgb(0,0,255)" />
    <sodipodi:guide
       position="32,1000"
       orientation="1,0"
       id="guide860"
       inkscape:locked="false"
       inkscape:label=""
       inkscape:color="rgb(0,0,255)" />
    <sodipodi:guide
       position="64,1000"
       orientation="1,0"
       id="guide862"
       inkscape:locked="false"
       inkscape:label=""
       inkscape:color="rgb(0,0,255)" />
    <sodipodi:guide
       position="96,1000"
       orientation="1,0"
       id="guide864"
       inkscape:locked="false"
       inkscape:label=""
       inkscape:color="rgb(0,0,255)" />
    <sodipodi:guide
       position="128,1000"
       orientation="1,0"
       id="guide866"
       inkscape:locked="false"
       inkscape:label=""
       inkscape:color="rgb(0,0,255)" />
    <sodipodi:guide
       position="160,1000"
       orientation="1,0"
       id="guide868"
       inkscape:locked="false"
       inkscape:label=""
       inkscape:color="rgb(0,0,255)" />
    <sodipodi:guide
       position="192,1000"
       orientation="1,0"
       id="guide870"
       inkscape:locked="false"
       inkscape:label=""
       inkscape:color="rgb(0,0,255)" />
    <sodipodi:guide
       position="224,1000"
       orientation="1,0"
       id="guide872"
       inkscape:locked="false"
       inkscape:label=""
       inkscape:color="rgb(0,0,255)" />
    <sodipodi:guide
       position="256,1000"
       orientation="1,0"
       id="guide874"
       inkscape:locked="false"
       inkscape:label=""
       inkscape:color="rgb(0,0,255)" />
  </sodipodi:namedview>
  <title
     id="title2">sprite</title>
  <rect
     x="998"
     y="999"
     width="1"
     height="1"
     style="fill:#0196d8"
     id="rect4" />
  <style
     id="style2"
     type="text/css">
	.st0{fill:#333333;}
</style>
  <g
     transform="matrix(4.0314721,0,0,4.0314721,-1.0666605,-1164.3763)"
     id="layer1"
     inkscape:label="Layer 1">
    <g
       id="g14"
       transform="matrix(0.26458333,0,0,0.26458333,0.26458338,288.75028)">
      <path
         id="path6"
         transform="translate(-1,-0.82)"
         d="M 27.88,1.56 A 0.56,0.56 0 0 0 27.31,1 h -2.2 a 0.57,0.57 0 0 0 -0.57,0.56 v 0.8 a 0.57,0.57 0 0 0 0.57,0.56 h 2.2 a 0.56,0.56 0 0 0 0.57,-0.56 z"
         inkscape:connector-curvature="0" />
      <path
         id="path8"
         transform="translate(-1,-0.82)"
         d="m 24.54,23.91 a 0.57,0.57 0 0 1 -0.58,0.56 H 1.58 A 0.57,0.57 0 0 0 1,25 v 2.14 a 0.57,0.57 0 0 0 0.58,0.56 h 24.74 c 1.11,0 1.56,-0.55 1.56,-1.69 V 9.45 A 0.56,0.56 0 0 0 27.31,8.89 h -2.2 a 0.57,0.57 0 0 0 -0.57,0.56 z"
         inkscape:connector-curvature="0" />
      <path
         id="path10"
         transform="translate(-1,-0.82)"
         d="M 4.12,30.44 A 0.56,0.56 0 0 0 4.69,31 h 2.2 a 0.57,0.57 0 0 0 0.57,-0.56 v -0.8 A 0.57,0.57 0 0 0 6.89,29.08 h -2.2 a 0.56,0.56 0 0 0 -0.57,0.56 z"
         inkscape:connector-curvature="0" />
      <path
         id="path12"
         transform="translate(-1,-0.82)"
         d="m 5.82,4.27 c -1.34,0 -1.7,0.47 -1.7,1.66 v 16.64 a 0.56,0.56 0 0 0 0.57,0.56 h 2.2 A 0.57,0.57 0 0 0 7.46,22.57 V 8.09 A 0.57,0.57 0 0 1 8,7.53 H 30.42 A 0.57,0.57 0 0 0 31,7 V 4.83 A 0.57,0.57 0 0 0 30.42,4.27 Z"
         inkscape:connector-curvature="0" />
    </g>
  </g>
  <g
     transform="matrix(3.7795276,0,0,3.7795276,160.03635,-1090.5197)"
     id="layer1-3"
     inkscape:label="Layer 1">
    <g
       id="g30"
       transform="matrix(0.26458333,0,0,0.26458333,-16.668757,288.66696)">
      <path
         id="path18"
         transform="translate(-1,-0.82)"
         d="M 95,16.34 A 0.87,0.87 0 0 0 94.12,15.46 H 90 a 0.88,0.88 0 1 0 0,1.76 h 4.1 A 0.88,0.88 0 0 0 95,16.34 Z"
         inkscape:connector-curvature="0" />
      <path
         id="path20"
         transform="translate(-1,-0.82)"
         d="M 87,16.34 A 0.87,0.87 0 0 0 86.12,15.46 H 82 a 0.88,0.88 0 1 0 0,1.76 h 4.1 A 0.88,0.88 0 0 0 87,16.34 Z"
         inkscape:connector-curvature="0" />
      <path
         id="path22"
         transform="translate(-1,-0.82)"
         d="m 78.89,16.34 a 0.88,0.88 0 0 0 -0.88,-0.88 h -4.1 a 0.88,0.88 0 1 0 0,1.76 H 78 a 0.89,0.89 0 0 0 0.89,-0.88 z"
         inkscape:connector-curvature="0" />
      <path
         id="path24"
         transform="translate(-1,-0.82)"
         d="m 70.86,16.34 a 0.87,0.87 0 0 0 -0.88,-0.88 h -4.1 a 0.88,0.88 0 1 0 0,1.76 H 70 a 0.88,0.88 0 0 0 0.86,-0.88 z"
         inkscape:connector-curvature="0" />
      <path
         id="path26"
         transform="translate(-1,-0.82)"
         d="m 88.94,11.85 2.15,-7 A 0.84,0.84 0 0 0 91,4 0.86,0.86 0 0 0 90.29,3.64 H 69.75 A 0.86,0.86 0 0 0 69,4 0.84,0.84 0 0 0 68.87,4.78 l 2.15,7 a 0.89,0.89 0 0 0 0.84,0.62 H 88.1 a 0.89,0.89 0 0 0 0.84,-0.62 z"
         inkscape:connector-curvature="0" />
      <path
         id="path28"
         transform="translate(-1,-0.82)"
         d="m 69,28.64 a 0.85,0.85 0 0 1 -0.13,-0.78 l 2.15,-7 a 0.89,0.89 0 0 1 0.84,-0.62 H 88.1 a 0.89,0.89 0 0 1 0.84,0.62 l 2.15,7 a 0.84,0.84 0 0 1 -0.13,0.78 0.88,0.88 0 0 1 -0.71,0.35 H 69.75 A 0.88,0.88 0 0 1 69,28.64 Z"
         inkscape:connector-curvature="0" />
    </g>
  </g>
  <g
     transform="matrix(3.7795276,0,0,3.7795276,192,-1090.5197)"
     id="layer1-6"
     inkscape:label="Layer 1">
    <path
       style="stroke-width:0.26458332"
       id="path46"
       d="m 1.4275978,289.95973 a 3.96875,3.96875 0 1 0 1.2620625,-0.84931 3.96875,3.96875 0 0 0 -1.2620625,0.84931 z m 2.8072292,6.10923 a 3.2993542,3.2993542 0 0 1 -2.333625,-5.63563 3.2728958,3.2728958 0 0 1 2.333625,-0.96837 z"
       inkscape:connector-curvature="0" />
  </g>
  <g
     transform="matrix(3.7795276,0,0,3.7795276,128.005,-1090.5197)"
     id="layer1-7"
     inkscape:label="Layer 1">
    <g
       id="g44"
       transform="matrix(0.26458333,0,0,0.26458333,-25.131448,288.66031)">
      <path
         id="path32"
         transform="translate(-1,-0.82)"
         d="m 112,31.34 a 0.87,0.87 0 0 0 0.88,-0.88 v -4.1 a 0.88,0.88 0 0 0 -1.76,0 v 4.1 a 0.87,0.87 0 0 0 0.88,0.88 z"
         inkscape:connector-curvature="0" />
      <path
         id="path34"
         transform="translate(-1,-0.82)"
         d="m 112,23.31 a 0.87,0.87 0 0 0 0.88,-0.88 v -4.1 a 0.88,0.88 0 1 0 -1.76,0 v 4.1 a 0.87,0.87 0 0 0 0.88,0.88 z"
         inkscape:connector-curvature="0" />
      <path
         id="path36"
         transform="translate(-1,-0.82)"
         d="m 112,15.23 a 0.88,0.88 0 0 0 0.88,-0.88 v -4.11 a 0.88,0.88 0 0 0 -1.76,0 v 4.11 a 0.88,0.88 0 0 0 0.88,0.88 z"
         inkscape:connector-curvature="0" />
      <path
         id="path38"
         transform="translate(-1,-0.82)"
         d="m 112,7.2 a 0.88,0.88 0 0 0 0.88,-0.88 v -4.1 a 0.88,0.88 0 1 0 -1.76,0 v 4.1 A 0.88,0.88 0 0 0 112,7.2 Z"
         inkscape:connector-curvature="0" />
      <path
         id="path40"
         transform="translate(-1,-0.82)"
         d="m 116.49,25.27 7,2.16 a 0.87,0.87 0 0 0 0.78,-0.13 0.9,0.9 0 0 0 0.36,-0.71 V 6.08 a 0.89,0.89 0 0 0 -1.14,-0.84 l -7,2.16 a 0.89,0.89 0 0 0 -0.62,0.84 v 16.19 a 0.87,0.87 0 0 0 0.62,0.84 z"
         inkscape:connector-curvature="0" />
      <path
         id="path42"
         transform="translate(-1,-0.82)"
         d="m 99.7,5.38 a 0.87,0.87 0 0 1 0.78,-0.14 l 7,2.16 a 0.89,0.89 0 0 1 0.62,0.84 v 16.19 a 0.87,0.87 0 0 1 -0.62,0.84 l -7,2.16 A 0.88,0.88 0 0 1 99.34,26.59 V 6.08 a 0.89,0.89 0 0 1 0.36,-0.7 z"
         inkscape:connector-curvature="0" />
    </g>
  </g>
  <g
     transform="matrix(3.7795276,0,0,3.7795276,224.30064,-1090.5196)"
     id="layer1-5"
     inkscape:label="Layer 1">
    <path
       style="stroke-width:0.26501137"
       id="path48"
       d="m 5.5901914,290.63746 a 14.167508,14.167508 0 0 0 -1.1872509,-1.75437 v 0 a 0.23321001,0.23321001 0 0 0 -0.3604156,0 v 0 a 14.167508,14.167508 0 0 0 -1.1766505,1.75437 c -0.7950341,1.37806 -1.1952013,2.60506 -1.1952013,3.6492 a 2.5653102,2.5653102 0 0 0 5.1253205,0 c -0.010597,-1.04414 -0.4134177,-2.26055 -1.2058022,-3.6492 z m -1.1342487,5.62884 v -6.53518 c 0.209359,0.29416 0.4717203,0.68903 0.7340816,1.14485 0.7393816,1.2853 1.120998,2.4752 1.120998,3.41069 a 2.0379375,2.0379375 0 0 1 -1.8550796,1.97964 z"
       inkscape:connector-curvature="0" />
  </g>
  <g
     transform="matrix(3.7795276,0,0,3.7795276,32.00003,-1090.5196)"
     id="layer1-35"
     inkscape:label="Layer 1">
    <path
       style="stroke-width:0.26458332"
       id="path16"
       d="m 7.8287636,289.04565 a 0.37041667,0.37041667 0 0 0 -0.3704167,0.37041 v 1.03717 a 3.96875,3.96875 0 1 0 0.4445,3.82588 0.36247917,0.36247917 0 0 0 0,-0.28311 0.3730625,0.3730625 0 0 0 -0.2010833,-0.20108 0.3730625,0.3730625 0 0 0 -0.4868333,0.20108 3.2305625,3.2305625 0 1 1 -0.2645834,-2.96598 H 5.8443886 a 0.3730625,0.3730625 0 0 0 0,0.74348 h 1.984375 a 0.3730625,0.3730625 0 0 0 0.373063,-0.37306 v -1.98438 a 0.3730625,0.3730625 0 0 0 -0.373063,-0.37041 z"
       inkscape:connector-curvature="0" />
  </g>
  <g
     transform="matrix(3.7795276,0,0,3.7795276,64.010652,-1090.5196)"
     id="layer1-62"
     inkscape:label="Layer 1">
    <g
       id="XMLID_2_"
       transform="matrix(0.14379529,0,0,0.14379529,-2.6688406,285.86448)"
       style="fill:#000000;fill-opacity:1">
      <path
         sodipodi:nodetypes="cccccccccccccsccscc"
         id="XMLID_7_"
         class="st0"
         d="M 37.4,35.1 20.5,52 37.4,68.9 54.2,52 Z m 31.2,0.6 C 64,31.1 58,28.8 52,28.8 v -8.4 l -11,11 11,11 V 34 c 4.7,0 9.3,1.8 12.9,5.3 7.1,7.1 7.1,18.6 0,25.8 -3.6,3.6 -8.2,5.3 -12.9,5.3 -2.5,0 -5,-0.5 -7.4,-1.6 l -3.9,3.9 c 3.5,1.9 7.4,2.9 11.3,2.9 6,0 12,-2.3 16.6,-6.9 9.2,-9.1 9.2,-23.9 0,-33 z"
         inkscape:connector-curvature="0"
         style="fill:#000000;fill-opacity:1" />
    </g>
  </g>
  <style
     type="text/css"
     id="style2-9">
	.st0{fill:#333333;}
</style>
  <g
     transform="matrix(3.7795276,0,0,3.7795276,96.010653,-1090.5196)"
     id="layer1-1"
     inkscape:label="Layer 1">
    <g
       id="XMLID_2_-2"
       transform="matrix(-0.14379529,0,0,0.14379529,11.135507,285.86448)"
       style="fill:#000000;fill-opacity:1">
      <path
         sodipodi:nodetypes="cccccccccccccsccscc"
         id="XMLID_7_-7"
         class="st0"
         d="M 37.4,35.1 20.5,52 37.4,68.9 54.2,52 Z m 31.2,0.6 C 64,31.1 58,28.8 52,28.8 v -8.4 l -11,11 11,11 V 34 c 4.7,0 9.3,1.8 12.9,5.3 7.1,7.1 7.1,18.6 0,25.8 -3.6,3.6 -8.2,5.3 -12.9,5.3 -2.5,0 -5,-0.5 -7.4,-1.6 l -3.9,3.9 c 3.5,1.9 7.4,2.9 11.3,2.9 6,0 12,-2.3 16.6,-6.9 9.2,-9.1 9.2,-23.9 0,-33 z"
         inkscape:connector-curvature="0"
         style="fill:#000000;fill-opacity:1" />
    </g>
  </g>
  <style
     type="text/css"
     id="style2-0">
	.st0{fill:#333333;}
</style>
</svg>
