<svg xmlns="http://www.w3.org/2000/svg" width="999" height="999.18" viewBox="0 0 999 999.18">
  <title>sprite</title>
  <rect x="998" y="998.18" width="1" height="1" style="fill: #0196d8"/>
  <g>
    <path d="M27.88,1.56A.56.56,0,0,0,27.31,1h-2.2a.57.57,0,0,0-.57.56v.8a.57.57,0,0,0,.57.56h2.2a.56.56,0,0,0,.57-.56v-.8Z" transform="translate(-1 -0.82)"/>
    <path d="M24.54,23.91a.57.57,0,0,1-.58.56H1.58A.57.57,0,0,0,1,25v2.14a.57.57,0,0,0,.58.56H26.32c1.11,0,1.56-.55,1.56-1.69V9.45a.56.56,0,0,0-.57-.56h-2.2a.57.57,0,0,0-.57.56V23.91Z" transform="translate(-1 -0.82)"/>
    <path d="M4.12,30.44a.56.56,0,0,0,.57.56h2.2a.57.57,0,0,0,.57-.56v-.8a.57.57,0,0,0-.57-.56H4.69a.56.56,0,0,0-.57.56Z" transform="translate(-1 -0.82)"/>
    <path d="M5.82,4.27c-1.34,0-1.7.47-1.7,1.66V22.57a.56.56,0,0,0,.57.56h2.2a.57.57,0,0,0,.57-.56V8.09A.57.57,0,0,1,8,7.53H30.42A.57.57,0,0,0,31,7V4.83a.57.57,0,0,0-.58-.56Z" transform="translate(-1 -0.82)"/>
  </g>
  <path d="M61.59,1.94a1.4,1.4,0,0,0-1.4,1.4V7.26a15,15,0,1,0,1.68,14.46,1.37,1.37,0,0,0,0-1.07,1.41,1.41,0,0,0-.76-.76,1.41,1.41,0,0,0-1.84.76,12.21,12.21,0,1,1-1-11.21H54.09a1.41,1.41,0,0,0,0,2.81h7.5A1.41,1.41,0,0,0,63,10.84V3.34A1.41,1.41,0,0,0,61.59,1.94Z" transform="translate(-1 -0.82)"/>
  <g>
    <path d="M95,16.34a.87.87,0,0,0-.88-.88H90a.88.88,0,1,0,0,1.76h4.1A.88.88,0,0,0,95,16.34Z" transform="translate(-1 -0.82)"/>
    <path d="M87,16.34a.87.87,0,0,0-.88-.88H82a.88.88,0,1,0,0,1.76h4.1A.88.88,0,0,0,87,16.34Z" transform="translate(-1 -0.82)"/>
    <path d="M78.89,16.34a.88.88,0,0,0-.88-.88h-4.1a.88.88,0,1,0,0,1.76H78A.89.89,0,0,0,78.89,16.34Z" transform="translate(-1 -0.82)"/>
    <path d="M70.86,16.34a.87.87,0,0,0-.88-.88h-4.1a.88.88,0,1,0,0,1.76H70A.88.88,0,0,0,70.86,16.34Z" transform="translate(-1 -0.82)"/>
    <path d="M88.94,11.85l2.15-7A.84.84,0,0,0,91,4a.86.86,0,0,0-.71-.36H69.75A.86.86,0,0,0,69,4a.84.84,0,0,0-.13.78l2.15,7a.89.89,0,0,0,.84.62H88.1a.89.89,0,0,0,.84-.62Z" transform="translate(-1 -0.82)"/>
    <path d="M69,28.64a.85.85,0,0,1-.13-.78l2.15-7a.89.89,0,0,1,.84-.62H88.1a.89.89,0,0,1,.84.62l2.15,7a.84.84,0,0,1-.13.78.88.88,0,0,1-.71.35H69.75A.88.88,0,0,1,69,28.64Z" transform="translate(-1 -0.82)"/>
  </g>
  <g>
    <path d="M112,31.34a.87.87,0,0,0,.88-.88v-4.1a.88.88,0,0,0-1.76,0v4.1A.87.87,0,0,0,112,31.34Z" transform="translate(-1 -0.82)"/>
    <path d="M112,23.31a.87.87,0,0,0,.88-.88v-4.1a.88.88,0,1,0-1.76,0v4.1A.87.87,0,0,0,112,23.31Z" transform="translate(-1 -0.82)"/>
    <path d="M112,15.23a.88.88,0,0,0,.88-.88V10.24a.88.88,0,0,0-1.76,0v4.11A.88.88,0,0,0,112,15.23Z" transform="translate(-1 -0.82)"/>
    <path d="M112,7.2a.88.88,0,0,0,.88-.88V2.22a.88.88,0,1,0-1.76,0v4.1A.88.88,0,0,0,112,7.2Z" transform="translate(-1 -0.82)"/>
    <path d="M116.49,25.27l7,2.16a.87.87,0,0,0,.78-.13.9.9,0,0,0,.36-.71V6.08a.89.89,0,0,0-1.14-.84l-7,2.16a.89.89,0,0,0-.62.84V24.43a.87.87,0,0,0,.62.84Z" transform="translate(-1 -0.82)"/>
    <path d="M99.7,5.38a.87.87,0,0,1,.78-.14l7,2.16a.89.89,0,0,1,.62.84V24.43a.87.87,0,0,1-.62.84l-7,2.16a.88.88,0,0,1-1.14-.84V6.08A.89.89,0,0,1,99.7,5.38Z" transform="translate(-1 -0.82)"/>
  </g>
  <path d="M133.39,5.39a15,15,0,1,0,4.77-3.21A15,15,0,0,0,133.39,5.39ZM144,28.48a12.47,12.47,0,0,1-8.82-21.3A12.37,12.37,0,0,1,144,3.52Z" transform="translate(-1 -0.82)"/>
  <path d="M181.28,7.76a53.46,53.46,0,0,0-4.48-6.62h0a.88.88,0,0,0-1.36,0h0A53.46,53.46,0,0,0,171,7.76c-3,5.2-4.51,9.83-4.51,13.77a9.68,9.68,0,0,0,19.34,0C185.79,17.59,184.27,13,181.28,7.76ZM177,29V4.34c.79,1.11,1.78,2.6,2.77,4.32C182.56,13.51,184,18,184,21.53A7.69,7.69,0,0,1,177,29Z" transform="translate(-1 -0.82)"/>
</svg>
